<?xml version="1.0" standalone="no"?>
<!DOCTYPE svg PUBLIC "-//W3C//DTD SVG 20010904//EN"
 "http://www.w3.org/TR/2001/REC-SVG-20010904/DTD/svg10.dtd">
<svg version="1.0" xmlns="http://www.w3.org/2000/svg"
 width="504.000000pt" height="504.000000pt" viewBox="0 0 504.000000 504.000000"
 preserveAspectRatio="xMidYMid meet">
<metadata>
Created by potrace 1.14, written by Peter Selinger 2001-2017
</metadata>
<g transform="translate(0.000000,504.000000) scale(0.100000,-0.100000)"
fill="#000000" stroke="none">
<path d="M3825 4940 c3 -5 15 -10 25 -10 10 0 22 5 25 10 4 6 -7 10 -25 10
-18 0 -29 -4 -25 -10z"/>
<path d="M2160 4469 c-125 -18 -172 -40 -200 -95 -12 -24 -14 -70 -12 -268 l4
-239 -50 51 c-29 30 -60 52 -71 52 -35 0 -56 32 -89 136 -36 113 -81 196 -117
220 -34 23 -117 14 -182 -19 -70 -36 -202 -136 -245 -186 -38 -45 -53 -92 -42
-138 6 -30 80 -265 146 -471 22 -68 38 -125 35 -128 -2 -2 -28 -17 -58 -32
-98 -49 -108 -114 -49 -327 16 -55 42 -163 58 -240 17 -77 47 -214 68 -305 56
-257 60 -276 56 -289 -2 -6 -36 -30 -75 -53 -40 -23 -75 -46 -78 -51 -4 -5 -5
-28 -3 -51 8 -78 24 -221 34 -296 5 -41 14 -118 20 -170 10 -91 18 -162 40
-342 5 -46 19 -162 30 -258 34 -295 43 -354 54 -369 13 -16 119 -13 796 29 96
6 256 15 355 20 99 6 259 15 355 20 96 6 252 15 345 20 309 18 373 23 385 30
13 8 18 103 40 870 6 212 15 531 21 709 9 276 9 326 -4 338 -12 12 -27 12
-100 2 -48 -7 -89 -10 -92 -7 -6 6 4 66 25 158 9 40 15 69 65 305 19 94 47
215 61 270 44 167 54 226 54 321 0 139 -28 186 -145 241 -52 24 -72 28 -151
28 -63 0 -96 -4 -108 -14 -29 -24 -33 0 -19 104 7 55 16 147 19 205 5 99 4
107 -18 139 -30 44 -78 60 -198 68 -108 6 -215 -7 -268 -34 -67 -34 -99 -130
-111 -333 l-6 -105 -55 -3 c-79 -5 -80 -3 -80 213 0 173 -1 184 -23 216 -34
52 -95 68 -242 67 -66 0 -145 -4 -175 -9z m330 -92 c33 -16 37 -51 32 -249
l-4 -154 -47 -11 c-69 -16 -140 -52 -158 -80 -14 -22 -16 -95 -14 -670 2 -424
-1 -643 -7 -639 -6 3 -20 50 -32 104 -58 260 -175 735 -200 817 -17 52 -20
111 -28 434 -4 206 -6 387 -4 403 3 20 13 33 31 40 70 27 377 31 431 5z m744
-26 c33 -28 28 -247 -14 -540 -5 -37 -14 -109 -20 -160 -10 -86 -67 -364 -105
-506 -9 -33 -46 -175 -82 -315 -36 -140 -69 -263 -75 -273 -5 -10 -17 -17 -26
-15 -16 3 -18 55 -25 643 -4 352 -10 654 -13 671 -2 18 -16 48 -29 68 -21 30
-25 49 -25 106 0 174 36 300 94 326 38 18 298 13 320 -5z m-1648 -113 c11 -13
27 -34 36 -48 15 -25 68 -172 68 -190 0 -5 -19 -14 -42 -20 -103 -26 -185 -70
-214 -115 -15 -23 -15 -40 1 -231 9 -113 15 -208 12 -211 -17 -17 -37 17 -70
123 -21 66 -63 194 -93 286 -30 92 -54 178 -54 191 0 30 72 99 169 162 122 79
156 88 187 53z m227 -349 c42 -19 75 -89 102 -214 8 -38 29 -119 45 -180 66
-240 260 -1020 258 -1035 -4 -21 -246 -46 -264 -27 -14 15 -214 610 -255 760
-36 132 -61 184 -100 205 -60 33 -58 30 -74 182 -8 80 -15 168 -15 196 0 58
-8 52 130 98 81 28 135 32 173 15z m946 -17 l28 -27 6 -199 c4 -110 7 -405 7
-657 0 -427 -1 -458 -17 -463 -40 -12 -385 -56 -393 -51 -6 4 -10 261 -10 668
0 558 2 666 14 683 10 14 39 26 93 38 43 10 92 22 108 26 17 4 54 8 83 9 46 1
58 -3 81 -27z m775 -18 c122 -34 146 -95 111 -278 -8 -44 -22 -104 -30 -135
-8 -31 -34 -155 -59 -276 -58 -283 -81 -393 -103 -480 l-18 -69 -194 -28
c-107 -15 -197 -25 -200 -23 -6 6 -4 13 193 775 30 118 67 270 81 337 29 141
48 190 72 196 24 6 88 -2 147 -19z m-1824 -982 c163 -487 162 -481 108 -482
-27 0 -193 -74 -260 -116 -33 -20 -63 -32 -67 -28 -4 5 -18 59 -30 119 -26
131 -110 517 -151 700 -17 72 -30 142 -30 156 0 41 39 67 170 113 8 3 35 4 60
3 l45 -2 155 -463z m1668 -379 c-10 -2 -28 -2 -40 0 -13 2 -5 4 17 4 22 1 32
-1 23 -4z m-161 -19 c-3 -3 -12 -4 -19 -1 -8 3 -5 6 6 6 11 1 17 -2 13 -5z
m-74 -21 c-24 -2 -62 -2 -85 0 -24 2 -5 4 42 4 47 0 66 -2 43 -4z m468 -56
c24 4 30 1 38 -19 10 -25 2 -82 -15 -109 -6 -10 -31 -14 -84 -15 -98 -1 -219
-15 -226 -25 -3 -5 -29 -9 -57 -9 -79 0 -220 -22 -205 -31 7 -5 24 -9 38 -9
20 0 22 -2 10 -10 -20 -13 -67 -13 -76 1 -7 12 -105 7 -239 -11 -76 -10 -112
-15 -250 -31 -49 -5 -112 -14 -140 -19 -27 -5 -108 -14 -180 -21 -144 -12
-315 -36 -323 -43 -2 -3 -13 -1 -23 5 -15 7 -19 21 -19 57 0 26 4 52 8 58 4 7
34 14 67 17 33 3 107 10 165 16 58 5 141 13 185 17 44 3 85 10 90 14 6 4 31 8
56 8 25 1 66 6 90 11 24 6 67 11 94 11 28 0 55 4 60 9 6 5 44 12 85 15 136 10
200 18 200 26 0 4 39 11 88 14 83 5 149 13 307 35 39 5 97 13 130 17 35 4 63
13 69 21 5 10 11 12 18 5 6 -6 24 -8 39 -5z m-951 -4 c-25 -3 -49 -8 -54 -14
-6 -5 -41 -9 -80 -9 -86 0 -83 6 8 13 37 3 71 9 74 12 3 3 26 4 51 3 l46 -1
-45 -4z m-252 -40 c-16 -2 -40 -2 -55 0 -16 2 -3 4 27 4 30 0 43 -2 28 -4z
m-108 -13 c0 -6 -36 -9 -92 -8 l-93 2 85 6 c47 3 88 7 93 8 4 1 7 -2 7 -8z
m-247 -27 c-13 -2 -33 -2 -45 0 -13 2 -3 4 22 4 25 0 35 -2 23 -4z m-169 -28
c-4 -8 -8 -15 -10 -15 -2 0 -4 7 -4 15 0 8 4 15 10 15 5 0 7 -7 4 -15z m-7
-82 c-3 -10 -5 -2 -5 17 0 19 2 27 5 18 2 -10 2 -26 0 -35z m1761 5 c16 -16
15 -80 -2 -103 -10 -14 -30 -20 -82 -23 -38 -2 -73 -8 -78 -13 -6 -5 -33 -9
-61 -9 -29 0 -96 -7 -151 -15 -97 -16 -180 -27 -319 -45 -38 -5 -83 -11 -100
-14 -16 -3 -79 -10 -140 -17 -60 -6 -114 -15 -120 -19 -5 -4 -53 -11 -105 -15
-52 -4 -124 -11 -160 -14 -65 -7 -65 -7 -30 -18 28 -9 15 -10 -71 -5 -103 5
-199 -5 -283 -30 -34 -11 -40 -10 -52 7 -17 23 -18 85 -1 105 7 9 34 16 67 19
30 2 62 6 70 10 8 4 46 9 84 10 39 1 76 7 83 12 6 6 16 8 21 5 9 -5 145 8 197
18 11 2 44 5 73 5 30 1 51 5 47 10 -3 5 27 12 67 15 153 12 203 18 216 28 7 6
47 12 90 13 42 2 109 8 147 14 39 7 108 16 155 22 47 5 117 14 155 19 39 5
107 13 152 18 46 5 86 11 90 15 10 11 28 8 41 -5z m-2013 -28 c3 -5 -1 -10
-10 -10 -9 0 -13 5 -10 10 3 6 8 10 10 10 2 0 7 -4 10 -10z m122 -22 c-3 -8
-6 -5 -6 6 -1 11 2 17 5 13 3 -3 4 -12 1 -19z m33 -83 c0 -51 -8 -75 -24 -75
-15 0 -100 -43 -104 -52 -2 -5 -9 -8 -16 -8 -7 0 -40 -13 -72 -29 -32 -16 -81
-40 -109 -53 -43 -20 -50 -28 -53 -56 -3 -27 -1 -31 15 -25 10 4 20 9 23 12 5
6 31 20 153 84 31 17 57 34 57 39 0 4 8 8 18 8 9 0 36 9 59 19 47 22 56 17 67
-35 12 -57 -4 -75 -120 -134 -60 -30 -110 -58 -112 -62 -2 -5 -12 -8 -22 -8
-10 0 -20 -3 -22 -7 -5 -13 -88 -53 -109 -53 -10 0 -23 10 -30 21 -10 20 -9
39 7 116 5 24 1 36 -15 52 -32 32 -29 95 5 126 15 14 33 25 40 25 8 0 11 6 8
15 -5 11 -2 13 10 9 9 -3 29 -1 45 6 23 9 28 16 23 33 -5 19 -4 20 11 9 14
-12 21 -12 47 -1 16 8 30 17 30 21 0 5 8 8 18 8 9 0 32 9 50 20 18 11 41 20
52 20 10 0 22 5 25 10 4 7 13 7 26 0 14 -8 19 -21 19 -55z m-266 26 c7 -11
-41 -24 -56 -15 -8 5 -5 10 8 15 27 11 42 11 48 0z m-74 -41 c0 -5 -12 -10
-27 -10 -22 0 -25 2 -13 10 20 13 40 13 40 0z m668 -17 c-10 -2 -26 -2 -35 0
-10 3 -2 5 17 5 19 0 27 -2 18 -5z m1507 -32 c3 -5 1 -12 -5 -16 -5 -3 -10 1
-10 9 0 18 6 21 15 7z m5 -385 c11 -11 12 -158 1 -196 -6 -23 -12 -25 -61 -25
-30 0 -61 6 -68 13 -18 16 -38 15 -93 -6 -41 -15 -45 -19 -38 -40 14 -37 -3
-59 -38 -50 -5 1 -10 -11 -13 -27 -5 -26 -46 -62 -58 -50 -8 8 18 68 34 80 15
10 15 13 0 27 -9 9 -16 22 -16 28 0 17 -43 28 -68 17 -12 -6 -25 -21 -28 -34
-4 -13 -10 -23 -15 -23 -5 0 -9 -11 -9 -24 0 -37 -45 -83 -115 -116 -47 -22
-71 -28 -94 -24 -23 5 -30 11 -27 21 4 8 6 21 6 28 0 8 17 21 38 30 60 27 66
31 77 51 9 16 81 90 151 154 11 11 35 20 52 22 17 1 29 5 26 9 -6 10 17 71 34
92 21 24 39 21 59 -10 13 -19 14 -28 5 -31 -20 -6 -13 -41 12 -57 32 -21 51
-11 66 34 14 43 53 85 90 95 72 21 70 15 72 175 l2 146 3 -150 c2 -82 8 -154
13 -159z m-987 217 c-7 -2 -21 -2 -30 0 -10 3 -4 5 12 5 17 0 24 -2 18 -5z
m-855 -124 c2 -19 -2 -28 -8 -24 -12 7 -14 55 -2 55 4 0 9 -14 10 -31z m942
-79 c0 -5 -5 -10 -11 -10 -5 0 -7 5 -4 10 3 6 8 10 11 10 2 0 4 -4 4 -10z
m-1303 -77 c-2 -16 -4 -5 -4 22 0 28 2 40 4 28 2 -13 2 -35 0 -50z m1071 -92
c9 -5 31 -15 47 -22 42 -19 75 -59 75 -91 0 -44 -71 -88 -174 -107 -109 -20
-196 -6 -242 38 -25 24 -31 55 -14 66 6 3 10 13 10 22 0 22 59 73 92 80 16 3
31 10 34 14 7 12 149 12 172 0z m-1051 -108 c-2 -21 -4 -6 -4 32 0 39 2 55 4
38 2 -18 2 -50 0 -70z m370 -55 c-2 -29 -3 -6 -3 52 0 58 1 81 3 53 2 -29 2
-77 0 -105z m130 40 c-2 -18 -4 -6 -4 27 0 33 2 48 4 33 2 -15 2 -42 0 -60z
m-480 -135 c-3 -10 -5 -2 -5 17 0 19 2 27 5 18 2 -10 2 -26 0 -35z m517 -233
c1 -58 1 -69 -1 -25 -2 44 -8 84 -13 89 -6 6 -9 39 -9 76 l2 65 9 -50 c6 -27
11 -97 12 -155z m-147 78 c-2 -24 -4 -7 -4 37 0 44 2 63 4 43 2 -21 2 -57 0
-80z m1346 78 c-25 -33 -79 -67 -119 -73 -37 -6 -53 -21 -35 -32 24 -15 -6
-59 -53 -80 -37 -16 -46 -25 -46 -45 0 -18 -9 -30 -30 -41 -16 -9 -30 -22 -30
-30 0 -24 -56 -19 -74 7 -11 15 -19 19 -26 12 -14 -14 -2 -44 16 -44 8 0 16 0
19 0 3 0 14 -9 25 -20 13 -13 35 -20 63 -21 66 -2 -268 -28 -363 -28 -66 0
-79 2 -60 10 35 14 60 39 60 61 0 10 7 18 18 18 30 1 62 25 95 71 65 90 100
127 125 134 38 9 51 23 47 47 -3 14 -1 17 8 10 7 -6 50 -15 96 -20 77 -9 89
-8 130 10 111 50 131 60 131 69 0 5 5 9 10 9 6 0 3 -11 -7 -24z m414 -243 c-1
-43 -3 -8 -3 77 0 85 2 120 3 78 2 -43 2 -113 0 -155z m-2110 145 c-2 -13 -4
-3 -4 22 0 25 2 35 4 23 2 -13 2 -33 0 -45z m20 -150 c-3 -8 -6 -5 -6 6 -1 11
2 17 5 13 3 -3 4 -12 1 -19z m0 -40 c-3 -8 -6 -5 -6 6 -1 11 2 17 5 13 3 -3 4
-12 1 -19z m350 -70 c-2 -18 -4 -4 -4 32 0 36 2 50 4 33 2 -18 2 -48 0 -65z
m1651 25 c-15 -2 -42 -2 -60 0 -18 2 -6 4 27 4 33 0 48 -2 33 -4z m-395 -20
c-13 -2 -35 -2 -50 0 -16 2 -5 4 22 4 28 0 40 -2 28 -4z m-740 -40 c-13 -2
-35 -2 -50 0 -16 2 -5 4 22 4 28 0 40 -2 28 -4z m-356 -19 c-3 -3 -12 -4 -19
-1 -8 3 -5 6 6 6 11 1 17 -2 13 -5z m116 -1 c-13 -2 -35 -2 -50 0 -16 2 -5 4
22 4 28 0 40 -2 28 -4z m-340 -20 c-29 -2 -77 -2 -105 0 -29 2 -6 3 52 3 58 0
81 -1 53 -3z"/>
<path d="M3056 1251 c-33 -19 -46 -41 -24 -41 15 0 65 47 57 54 -2 2 -17 -4
-33 -13z"/>
<path d="M2610 790 c-8 -5 -12 -11 -9 -14 3 -3 14 1 25 9 21 16 8 20 -16 5z"/>
</g>
</svg>
